<svg viewBox="179.16624365482232 367.8375000000001 172.6903553299491 165.8875" xmlns="http://www.w3.org/2000/svg" overflow="visible" xmlns:xlink="http://www.w3.org/1999/xlink" width="172.6903553299491px" height="165.8875px"><g id="Master/Character/Torso" stroke="none" stroke-width="1" fill="none" fill-rule="evenodd"><g id="Torso" transform="translate(139.000000, 391.000000) scale(1 1)"><g id="Torso/Reading Color" stroke="none" stroke-width="1" fill="none" fill-rule="evenodd"><path d="M110.793057,32.9960542 C117.445711,38.0875123 122.616206,40.6332413 126.304545,40.6332413 C129.992883,40.6332413 135.201349,38.0875123 141.929943,32.9960542 L146.174871,32.9960542 L145.506241,62.5404415 L176.6894,61.7498179 L178.57147,75.087079 L192.014891,71.6537088 L193.229135,77.6769521 C199.360587,90.3585952 203.175341,99.3223726 204.673397,104.568284 C206.920481,112.437151 207.567214,114.006163 206.009382,117.789479 C204.45155,121.572795 201.482317,126.076454 195.145146,125.831216 C190.920366,125.667724 184.76845,121.49662 176.6894,113.317904 L162.954863,85.5207464 L162.037477,120.677655 L159.449843,124.081408 C158.746303,121.217074 156.442189,119.784907 152.5375,119.784907 C148.632811,119.784907 138.838687,120.38087 123.155127,121.572795 L121.985005,128.107428 C90.9505188,130.025675 71.9667814,132.142957 65.0337929,134.459273 C58.1008044,136.77559 52.0097511,135.699966 46.7606328,131.2324 C44.8910473,126.996282 44.4236261,124.029337 45.3583694,122.331565 C46.2931127,120.633793 52.8515872,100.335878 65.0337929,61.4378205 C70.9774109,53.5645382 75.7079166,48.8506492 79.22531,47.2961535 C79.3263193,47.2515129 89.8489017,42.4848132 110.793057,32.9960542 Z" id="Path-35" fill="#009DE9"/><path d="M192.810735,18.3768441 C182.976587,18.4778792 175.550803,21.2060953 170.601995,26.5893576 L170.49,26.713 L170.475535,26.6998007 C165.858916,22.550944 157.759107,22.6370418 146.252661,26.7490076 L146.133273,26.8006269 C145.826864,26.9574826 145.619491,27.2635569 145.592216,27.6128288 L145.279,31.619 L144.833222,31.4612718 L144.701057,31.4245407 C142.745732,31.0232126 141.185716,31.5436493 139.451753,32.9117724 L139.214172,33.1035819 C138.683673,33.5413941 136.868994,35.219143 136.705647,35.3635867 C133.959229,37.7921869 131.50033,38.9275998 127.719824,38.9275998 C121.261173,38.9275998 116.05572,36.5481478 112.026032,31.7601967 C111.75889,31.4427862 111.323504,31.3232869 110.93176,31.4598538 L105.966221,33.2008082 C96.0750125,36.6897377 88.1307189,39.6255691 82.1314373,42.0091649 C72.8742462,45.6871722 66.0259599,53.600224 63.1071888,61.9674824 L62.95973,62.4006573 C62.4790254,63.8485306 61.6144021,66.7779715 60.0646714,72.1742116 L55.959057,86.5191892 L54.1011208,92.959957 L51.9175942,100.418229 C49.2663198,109.375235 47.3188109,115.531597 46.0649789,118.785499 L45.8333594,119.373084 C41.2573321,130.694023 48.4508867,139.903953 61.4474488,136.048225 L61.8430541,135.927374 C70.7004462,133.143952 103.300811,130.006116 159.397195,126.558797 L159.583121,126.529628 L159.699101,126.496176 C163.052826,125.415753 164.346079,115.045222 164.123113,94.2481787 L164.082,91.283 L164.257489,91.7176252 C167.686152,100.107411 172.45203,108.976904 178.553813,118.328132 L179.092,119.15 L179.050003,118.9712 C181.106274,127.882744 188.322351,130.608049 200.117606,127.190379 C208.199232,124.848731 209.71354,117.33545 206.654399,106.278368 C205.933993,103.674505 204.982805,100.945873 203.794005,97.9667548 L203.407124,97.0119843 C202.674512,95.2620194 199.333481,87.6222956 199.052792,86.5840249 L198.957249,86.120102 C198.350347,83.3095557 196.905221,80.6235601 194.638608,78.06734 L194.476799,77.8871676 L192.980673,72.3159172 L192.922978,71.8717853 C192.665476,69.5638949 192.93633,66.6777778 194.137987,63.5229178 L194.453766,62.7188329 C195.817235,59.1310608 195.761672,55.8499715 194.259474,52.9448167 L194.072,52.599 L194.380718,19.3832326 C194.38589,18.8273353 193.936683,18.3739297 193.380762,18.3739297 L192.810735,18.3768441 Z M192.371,20.384 L192.06926,52.8521327 C192.067553,53.0356583 192.116385,53.2161142 192.210409,53.3737342 C193.695976,55.8641102 193.834379,58.7073949 192.592237,61.9873349 L192.453867,62.3404317 C190.973124,65.9972875 190.631546,69.3710195 190.935312,72.0935586 L190.970998,72.3829843 C190.994554,72.5557714 191.017102,72.6878383 191.035413,72.7768242 L192.608151,78.6401603 C192.650054,78.7961998 192.729142,78.9397626 192.838646,79.0585614 C195.164181,81.5814972 196.568045,84.1895468 197.072228,86.8895748 C197.266216,87.928428 201.260615,97.0388929 201.639103,97.9698956 C202.943019,101.177264 203.96965,104.074954 204.726812,106.81167 L204.948108,107.636457 C207.457115,117.29604 206.062025,123.385723 199.561001,125.269392 C188.750127,128.401838 182.756269,126.13813 180.998797,118.521531 C180.972,118.405396 180.924657,118.294986 180.859002,118.195512 C173.04471,106.35601 167.393053,95.316225 163.90131,85.0803643 C163.531487,83.9962482 161.925246,84.2843116 161.955206,85.429379 L162.023217,88.3045454 C162.500355,110.948591 161.340898,123.500677 159.224823,124.541009 L159.159,124.569 L151.000849,125.079519 C100.268401,128.303894 70.5109078,131.242806 61.5232541,133.933575 L61.2434656,134.019366 C49.8143047,137.610962 43.788626,130.218795 47.5700153,120.420242 L47.9244306,119.522101 C49.3677042,115.779728 51.6715059,108.396081 54.8824782,97.4280904 L56.231028,92.7958027 L63.1336849,68.7539662 C63.9816512,65.8373758 64.5213023,64.0445235 64.8578503,63.0308473 C67.5127741,55.0342669 74.0400981,47.3760397 82.8699121,43.8678351 L84.3867109,43.2696748 C90.6638958,40.8118333 98.8798977,37.802471 109.03283,34.2424434 L110.95,33.571 L111.092266,33.7317052 C115.423978,38.5205203 120.989018,40.9275998 127.719824,40.9275998 C131.902348,40.9275998 134.752511,39.6758953 137.722758,37.1298345 L138.135103,36.7673675 C138.573537,36.3683294 140.056317,35.0017131 140.487198,34.6461138 L140.718437,34.4598034 C141.935029,33.5044678 142.894621,33.160487 144.074931,33.3432745 L144.241,33.373 L145.841649,33.9389025 L145.951325,33.9709298 C146.537024,34.106798 147.123655,33.6908746 147.171836,33.0739096 L147.535,28.417 L147.963083,28.2695379 C158.912888,24.524932 166.163726,24.7941001 169.799097,28.8489864 C170.208417,29.3055414 170.92846,29.2895626 171.317124,28.8152991 C175.666831,23.5076102 182.449347,20.6925393 191.73701,20.3994666 L192.371,20.384 Z" id="Path-91" fill="#000" fill-rule="nonzero"/><path d="M74.5787648,102.495912 C81.6951778,101.662072 87.5953467,102.10999 92.279804,103.861174 L94.1544735,104.58939 C98.2568007,106.1565 104.477474,108.308933 112.810368,111.044127 L116.551,112.265 L121.56477,112.265455 C122.046698,112.265455 122.453762,112.607679 122.545507,113.069719 L122.561735,113.187597 L122.730065,115.454587 C123.152101,121.472564 123.236756,125.707825 122.979697,128.192656 C122.922865,128.742009 122.431456,129.141277 121.882103,129.084446 C121.33275,129.027615 120.933482,128.536205 120.990314,127.986852 C121.23256,125.6452 121.149116,121.507294 120.735671,115.605249 L120.638,114.265 L116.394035,114.265455 C116.324154,114.265455 116.254564,114.25813 116.186393,114.24366 L116.085344,114.216617 L112.179586,112.942071 C102.772049,109.85409 96.0405468,107.503818 91.9763611,105.887608 C87.5676522,104.134391 81.8458424,103.658101 74.8115154,104.482323 C74.2629833,104.546595 73.7662071,104.154025 73.7019348,103.605493 C73.6376625,103.056961 74.0302326,102.560185 74.5787648,102.495912 Z" id="Path-92" fill="#000" fill-rule="nonzero"/><polygon id="Path-93" fill="#000" fill-rule="nonzero" points="117.394035 113.265555 117.394035 128.089754 115.394035 128.089754 115.394035 113.265555"/><path d="M86.9329626,86.4474784 C87.4852295,86.4430706 87.9365303,86.8871714 87.9409711,87.4394383 L87.9464221,88.4900197 C87.964152,96.4156532 87.4273035,101.380893 86.2558774,103.56283 C85.9946383,104.049422 85.3884007,104.232107 84.9018079,103.970868 C84.4152151,103.709629 84.2325299,103.103392 84.4937691,102.616799 C85.4940691,100.753607 86.0067893,95.6327775 85.9410357,87.4555198 C85.9365949,86.9032529 86.3806957,86.4519522 86.9329626,86.4474784 Z" id="Path-94" fill="#000" fill-rule="nonzero"/><path d="M89.988088,87.8100415 C90.4006624,87.4428891 91.0327558,87.4797109 91.3999081,87.8922852 C91.7670605,88.3048596 91.7302387,88.936953 91.3176644,89.3041053 C89.7270847,90.7195718 88.5901949,92.7784125 87.9177168,95.5078707 C87.785597,96.0441195 87.2437772,96.3717308 86.7075283,96.239611 C86.1712795,96.1074911 85.8436683,95.5656713 85.9757881,95.0294225 C86.7395481,91.9294685 88.0734076,89.5139271 89.988088,87.8100415 Z" id="Path-95" fill="#000" fill-rule="nonzero"/><path d="M123.086077,120.745456 L123.223976,118.750216 L127.142004,119.026909 C134.243991,119.540056 139.653408,119.999429 143.374417,120.405596 L144.617614,120.546741 C145.182364,120.613627 145.747335,120.670592 146.35336,120.723118 L148.768704,120.905285 C153.690099,121.261205 155.310631,122.050874 155.373483,125.356825 L155.3754,125.562392 L153.3754,125.562392 C153.3754,123.584389 152.741349,123.212407 148.904017,122.920788 L146.894379,122.774215 L146.655713,122.755316 C146.007932,122.703163 145.410818,122.647646 144.822567,122.583075 L143.149925,122.392964 C139.675562,122.013859 134.698955,121.586372 128.223577,121.110977 L123.086077,120.745456 Z" id="Path-96" fill="#000" fill-rule="nonzero"/><path d="M136.784845,119.690273 C151.897431,117.266479 159.842207,119.049363 160.011315,125.592843 L160.014073,125.807905 L158.014073,125.807905 C158.014073,121.022791 151.407078,119.432031 137.586599,121.588297 L137.101562,121.665036 L136.784845,119.690273 Z" id="Path-97" fill="#000" fill-rule="nonzero"/><path d="M161.257228,76.7080896 C161.792316,76.5713443 162.336944,76.8942648 162.47369,77.4293528 C163.207265,80.2998533 163.570127,84.0058363 163.570127,88.5570734 C163.570127,89.1093582 163.122412,89.5570734 162.570127,89.5570734 C162.017843,89.5570734 161.570127,89.1093582 161.570127,88.5570734 C161.570127,84.1595463 161.222789,80.612115 160.535964,77.9245514 C160.399219,77.3894634 160.72214,76.8448349 161.257228,76.7080896 Z" id="Path-98" fill="#000" fill-rule="nonzero" transform="translate(162.037357, 83.116893) rotate(-6.000000) translate(-162.037357, -83.116893)"/><path d="M193.533586,76.7036912 L193.992992,78.6502129 L192.652722,78.9696524 C185.240362,80.7542708 180.939101,82.1004776 180.185175,82.7909631 C178.570925,84.2693785 176.855243,91.5852241 178.021639,94.9402708 L178.123468,95.2493666 C179.106268,98.3894261 180.044814,105.942876 180.973515,118.041008 L181.021543,118.670827 L179.027257,118.821904 L178.838025,116.389909 C177.969783,105.532835 177.089532,98.6600983 176.226612,95.8836522 L176.132545,95.5970223 C174.708184,91.4999595 176.621098,83.3430964 178.834378,81.3160572 C179.911979,80.329133 183.904015,79.0426285 191.197387,77.2638105 L193.533586,76.7036912 Z" id="Path-99" fill="#000" fill-rule="nonzero"/><path d="M191.758879,70.6870351 C192.292758,70.5456437 192.840173,70.8638179 192.981565,71.3976971 C193.112857,71.893442 192.847891,72.400858 192.381915,72.5840226 L192.270903,72.6203825 L179.745,75.937 L181.002449,81.923574 C181.107857,82.4254602 180.816935,82.9184535 180.342088,83.0772079 L180.229339,83.1077623 C179.727453,83.2131702 179.23446,82.9222481 179.075705,82.4474011 L179.045151,82.3346528 L177.592821,75.4195743 C177.49126,74.936002 177.757866,74.4572231 178.208326,74.2822184 L178.315458,74.2473612 L191.758879,70.6870351 Z" id="Path-100" fill="#000" fill-rule="nonzero"/><path d="M179.221156,40.5258088 C180.316731,40.1943022 181.226738,40.5019604 181.979015,41.3711252 L182.017,41.416 L182.035727,41.380389 C182.337014,40.8302924 182.817238,40.5252745 183.509388,40.4870503 L183.660961,40.4829509 C185.394888,40.4829509 187.150992,44.4794699 190.208414,54.0732753 L190.34,54.491 L190.392142,54.5014237 C191.195602,54.626371 191.655999,54.1469056 191.981577,52.7907559 L192.027193,52.591027 C192.144554,52.051356 192.677184,51.709006 193.216855,51.8263669 C193.756526,51.9437278 194.098876,52.4763575 193.981515,53.0160285 C193.357385,55.8860179 191.633703,57.1342036 189.205682,56.2438544 C188.914708,56.137155 188.68965,55.9015729 188.596351,55.6060296 L188.086198,54.007269 C186.864241,50.2207856 185.826384,47.326319 184.976016,45.3304256 C184.548489,44.3269781 184.172089,43.5602026 183.854837,43.0389346 L183.761444,42.8899282 L183.693,42.788 L183.690276,42.8031375 C183.590553,43.3963481 183.631,44.3509608 183.824435,45.6375997 L183.871795,45.940397 C184.078498,47.2141977 182.199632,47.5824544 181.910186,46.3248712 L181.775243,45.7672186 C181.118112,43.1868295 180.394381,42.2603604 179.800394,42.440093 C179.19822,42.6223029 179.19822,44.3704494 180.453849,47.9308952 C180.880815,49.1415974 179.112898,49.8413879 178.595564,48.6664552 C177.974617,47.256202 177.405015,46.4109566 176.990403,46.0634984 L176.907,46 L176.904458,46.1405605 C176.904458,46.7732123 177.070215,47.7472609 177.405873,49.0386864 L177.576157,49.6692226 C177.905837,50.9084097 176.124411,51.4371527 175.685918,50.3133921 L175.646673,50.1954728 L175.548946,49.8421747 C175.214059,48.687482 174.990485,48.5792726 174.413898,48.9979572 L174.33304,49.0582676 C173.569419,49.6413566 175.595889,59.0382017 180.466161,74.7917172 C180.629284,75.319362 180.333782,75.8793406 179.806137,76.0424645 C179.278492,76.2055883 178.718514,75.9100856 178.55539,75.3824408 L177.71879,72.6550945 C172.827067,56.5720249 171.278643,48.8741624 173.119265,47.4686921 C173.738529,46.9958324 174.329403,46.7619744 174.87204,46.7449073 L174.917,46.744 L174.909559,46.6651757 C174.747908,44.8979867 175.184975,43.9456255 176.468951,43.8820467 L176.609772,43.8786391 C176.87521,43.8786391 177.131055,43.9227513 177.378783,44.0100178 L177.445,44.036 L177.439342,43.9630217 C177.311944,42.1718785 177.814354,41.0266515 179.072611,40.5748586 L179.221156,40.5258088 Z" id="Path-101" fill="#000" fill-rule="nonzero"/><path d="M176.348184,48.9611454 C176.843163,48.8269935 177.3521,49.0890257 177.537952,49.5539361 L177.574952,49.6647365 L180.732465,61.3149743 C180.876936,61.8480283 180.561927,62.397271 180.028873,62.5417422 C179.533895,62.6758941 179.024957,62.4138619 178.839106,61.9489515 L178.802105,61.838151 L175.644593,50.1879133 C175.500122,49.6548593 175.81513,49.1056166 176.348184,48.9611454 Z" id="Path-102" fill="#000" fill-rule="nonzero"/><path d="M179.21399,47.3085356 C179.703719,47.1563334 180.221918,47.3995376 180.424683,47.8573245 L180.465719,47.9666944 L184.111059,59.696031 C184.274969,60.2234321 183.980301,60.7838505 183.4529,60.9477606 C182.963171,61.0999628 182.444972,60.8567586 182.242207,60.3989718 L182.201171,60.2896018 L178.555831,48.5602652 C178.391921,48.0328641 178.686589,47.4724457 179.21399,47.3085356 Z" id="Path-103" fill="#000" fill-rule="nonzero"/><path d="M182.643103,45.1301996 C183.140746,45.0062967 183.644165,45.2787815 183.820377,45.7474303 L183.855082,45.8589711 L186.721807,57.3728661 C186.855241,57.9087894 186.528959,58.4514107 185.993035,58.5848447 C185.495392,58.7087477 184.991974,58.4362628 184.815761,57.967614 L184.781057,57.8560732 L181.914332,46.3421782 C181.780898,45.8062549 182.10718,45.2636336 182.643103,45.1301996 Z" id="Path-104" fill="#000" fill-rule="nonzero"/><polygon id="Path-105" fill="#000" fill-rule="nonzero" points="171.543671 28.1813602 171.543 60.576 175.913828 60.5765627 175.913828 62.5765627 169.543671 62.5765627 169.543671 28.1813602"/><path d="M146.197497,31.996049 C146.710201,32.0079134 147.12403,32.4034179 147.170528,32.9019363 L147.174615,33.0186798 L146.529,61.502 L171.604505,60.5765982 C172.116992,60.5576848 172.553613,60.9278742 172.629681,61.4227441 L172.640705,61.5390378 C172.659618,62.0515247 172.289429,62.4881457 171.794559,62.5642135 L171.678265,62.5752376 L145.543122,63.5397612 C145.006192,63.5595767 144.55717,63.1535222 144.510277,62.6313698 L144.506497,62.5178159 L145.175127,32.9734286 C145.187623,32.4212853 145.645353,31.9838144 146.197497,31.996049 Z" id="Path-106" fill="#000" fill-rule="nonzero"/><path d="M192.899258,19.3102808 C193.420628,19.1280948 193.990973,19.4030578 194.173159,19.9244279 C194.342332,20.4085572 194.11733,20.9349148 193.666886,21.153507 L193.559012,21.1983287 L170.873548,29.1254698 C170.700455,29.1859548 170.514064,29.1976855 170.334754,29.1593793 C166.876652,28.4206234 158.975845,28.4205951 146.742779,29.1794417 C146.191553,29.2136355 145.716978,28.7944988 145.682784,28.2432736 C145.64859,27.6920484 146.067727,27.2174725 146.618952,27.1832787 L148.511354,27.0698793 C159.446952,26.4385433 166.699825,26.4516315 170.354247,27.1245171 L170.472,27.147 L192.899258,19.3102808 Z" id="Path-107" fill="#000" fill-rule="nonzero"/></g></g><g id="Head" transform="translate(250.000000, 368.000000) scale(1 1)" fill="#000"><g id="Head/Pompadour" stroke="none" stroke-width="1" fill="none" fill-rule="evenodd"><g id="Pompadour" fill="#000"><path d="M34.516,8.7547 C34.279,10.3737 33.803,11.6837 33.175,12.7387 C33.165,12.1507 33.141,11.5597 33.109,10.9697 C34.11,8.9947 34.621,6.7777 34.242,5.1897 C34.587,6.2767 34.703,7.4837 34.516,8.7547 M25.876,16.3457 C23.886,16.1387 20.79,14.9387 20.156,13.2237 C19.925,12.6017 20.038,11.9487 20.478,11.2807 C20.168,12.2477 20.423,13.6917 21.663,14.5737 C23.888,16.1547 27.887,16.3357 30.204,14.6247 C30.59,14.3407 30.96,13.9917 31.315,13.6057 C31.312,14.0317 31.299,14.4577 31.286,14.8847 C29.638,16.1417 27.642,16.5307 25.876,16.3457 M23.083,1.4107 C24.181,0.5557 25.539,0.1797 27.132,0.2707 C24.924,0.3587 22.512,1.5097 20.907,4.8117 C21.261,3.6017 21.933,2.3057 23.083,1.4107 M34.209,5.0667 C34.197,5.0157 34.18,4.9667 34.165,4.9167 C34.183,4.9647 34.193,5.0177 34.209,5.0667 M30.084,0.6187 C27.117,-0.3733 24.708,-0.1713 22.929,1.2137 C21.606,2.2437 20.88,3.7487 20.552,5.0987 C20.474,5.1077 20.396,5.1177 20.318,5.1267 C17.876,4.2157 15.359,4.5667 13.287,5.7227 C12.357,6.2427 11.841,6.9007 10.917,7.4347 C10.235,7.8557 9.552,8.2757 8.87,8.6977 C6.812,10.4287 5.089,12.3947 5.076,15.1087 C5.072,15.8987 5.341,17.8647 5.745,19.7537 C5.398,19.6977 5.192,19.6787 5.01,19.6187 C2.105,18.6567 -0.108,20.2917 0.004,23.3507 C0.087,25.6267 1.179,27.3827 3.196,28.3307 C4.374,28.8857 4.646,29.5317 4.543,30.7267 C3.893,38.2937 2.663,45.7687 1.117,53.1987 C0.938,54.0537 1.092,54.9777 1.092,55.9337 C2.665,55.8797 2.605,54.9037 2.783,54.0787 C4.449,46.3457 5.724,38.5527 6.425,30.6687 C6.644,28.2037 6.618,28.1297 4.248,26.9027 C2.425,25.9587 1.368,23.9307 2.017,22.3807 C2.239,21.8527 2.781,21.1997 3.265,21.1157 C3.696,21.0407 4.296,21.6217 4.732,22.0127 C5.012,22.2647 5.054,22.7837 5.337,23.0277 C5.769,23.4007 6.317,23.6387 6.816,23.9337 C6.868,23.8297 6.927,23.7277 6.988,23.6247 C7.025,23.6847 7.063,23.7497 7.101,23.7967 C7.159,23.5557 7.226,23.3227 7.288,23.0857 C7.377,22.9107 7.454,22.7337 7.483,22.5497 C7.501,22.4327 7.516,22.3147 7.534,22.1967 C9.566,15.3817 13.769,10.4037 20.554,7.4037 C20.615,7.4507 20.826,7.6757 21.085,7.7997 C21.423,7.9617 21.817,8.0057 22.155,8.1667 C23.126,8.6307 23.799,9.5677 23.235,10.3927 C22.483,11.4887 21.546,11.5417 21.101,10.5257 C21.078,10.4747 20.951,10.5607 20.873,10.5817 L20.783,10.4957 C19.874,11.4547 19.585,12.4007 19.921,13.3107 C20.622,15.2027 23.874,16.3887 25.851,16.5937 C26.134,16.6227 26.423,16.6387 26.716,16.6387 C28.247,16.6387 29.874,16.2137 31.275,15.2057 C31.245,15.9657 31.203,16.7247 31.134,17.4797 C30.533,24.0107 29.676,30.5027 26.729,36.4977 C25.371,39.2587 23.949,39.8737 20.925,38.9417 C18.702,38.2557 16.581,37.3487 14.785,35.8027 C14.27,35.3597 13.625,34.6157 12.978,35.4717 C12.388,36.2517 13.143,36.8177 13.703,37.2307 C14.662,37.9377 15.644,38.6457 16.703,39.1817 C19.355,40.5257 22.119,41.5007 25.144,40.9427 C25.42,41.7497 25.652,42.3427 25.828,42.9517 C26.885,46.6347 27.908,50.3277 28.994,54.0017 C29.264,54.9137 29.202,56.1157 31.097,56.5907 C30.953,55.4967 30.938,54.7267 30.74,54.0057 C29.642,50.0047 28.475,46.0217 27.388,42.0157 C27.151,41.1427 26.642,40.2907 27.28,39.2817 C29.793,35.2957 30.992,30.8327 31.848,26.2537 C32.656,21.9397 33.204,17.5997 33.175,13.2237 C33.928,12.0877 34.494,10.6307 34.763,8.7917 C35.315,5.0207 33.435,1.7357 30.084,0.6187" id="Fill-1"/></g></g></g><g id="Face" transform="translate(264.000000, 380.000000) scale(1 1)" fill="#000"><g id="Face/Happy" stroke="none" stroke-width="1" fill="none" fill-rule="evenodd"><g id="Happy" fill="#000"><polygon id="Fill-1" points="9.6244 5.4505 11.1524 11.4955 8.9234 11.7185"/><g id="Group-22" transform="translate(0.000000, 0.652400)"><path d="M9.6283,4.8567 L8.9363,11.0537 L11.1393,10.8337 L9.6283,4.8567 Z M8.9233,11.0767 C8.9213,11.0767 8.9183,11.0757 8.9163,11.0737 C8.9143,11.0707 8.9133,11.0677 8.9133,11.0647 L9.6133,4.7967 C9.6143,4.7917 9.6183,4.7877 9.6233,4.7877 C9.6283,4.7877 9.6333,4.7907 9.6343,4.7947 L11.1623,10.8397 C11.1633,10.8427 11.1623,10.8467 11.1613,10.8487 C11.1593,10.8517 11.1563,10.8527 11.1533,10.8537 L8.9253,11.0767 L8.9233,11.0767 Z" id="Fill-2"/><path d="M7.8626,0.3586 C7.8626,0.3586 7.9546,2.2096 7.5446,2.5976 C5.8246,2.4076 1.9526,3.0466 0.0106,3.9036 C0.7746,2.1306 7.8626,0.3586 7.8626,0.3586" id="Fill-4"/><g id="Group-8"><path d="M7.8524,0.3713 C7.6894,0.4133 5.9904,0.8483 4.2264,1.4753 C1.8134,2.3353 0.3654,3.1663 0.0314,3.8823 C1.9254,3.0563 5.7694,2.3923 7.5404,2.5873 C7.9214,2.2163 7.8594,0.5363 7.8524,0.3713 M0.0104,3.9143 C0.0074,3.9143 0.0054,3.9123 0.0034,3.9103 C-0.0006,3.9073 -0.0006,3.9033 0.0004,3.8983 C0.3184,3.1613 1.7384,2.3393 4.2194,1.4563 C6.0664,0.7993 7.8424,0.3523 7.8594,0.3483 C7.8634,0.3473 7.8664,0.3483 7.8684,0.3503 C7.8714,0.3513 7.8734,0.3543 7.8734,0.3573 C7.8764,0.4333 7.9614,2.2183 7.5514,2.6053 C7.5494,2.6073 7.5454,2.6093 7.5424,2.6083 C5.7684,2.4113 1.8994,3.0823 0.0154,3.9133 C0.0134,3.9133 0.0124,3.9143 0.0104,3.9143" id="Fill-6"/></g><path d="M4.8997,8.6438 C4.3457,8.6778 3.7937,8.5748 3.2787,8.4048 C3.4687,8.4608 3.6717,8.4918 3.8827,8.4918 C4.9357,8.4918 5.7927,7.7398 5.7927,6.8168 C5.7927,6.4448 5.5037,5.9998 5.2307,5.6918 C6.5807,5.8158 7.7657,6.5188 8.2027,6.8078 C7.8117,7.2718 6.5937,8.5398 4.8997,8.6438 M2.0237,6.3568 C1.9927,6.5158 1.9737,6.6898 1.9737,6.8168 C1.9737,7.4868 2.4247,8.0658 3.0737,8.3328 C2.0807,7.9648 1.2587,7.3728 0.9077,7.0968 C1.1117,6.9228 1.4927,6.6308 2.0237,6.3568 M8.6377,6.5928 C8.5667,6.5398 6.8727,5.2738 4.8837,5.2478 C2.1497,5.2168 0.5007,6.8868 0.4307,6.9578 C0.3907,6.9988 0.3697,7.0558 0.3717,7.1138 C0.3737,7.1708 0.3997,7.2258 0.4427,7.2638 C0.5297,7.3408 2.5167,9.0748 4.6817,9.0748 C4.7627,9.0748 4.8447,9.0718 4.9257,9.0668 C7.1967,8.9258 8.6227,6.9688 8.6827,6.8858 C8.7497,6.7918 8.7297,6.6628 8.6377,6.5928" id="Fill-9"/><path d="M14.221,8.217 C13.735,8.251 13.248,8.132 12.802,7.946 C12.879,7.961 12.957,7.971 13.035,7.971 C13.884,7.971 14.573,7.281 14.573,6.433 C14.573,6.062 14.443,5.714 14.209,5.439 C14.303,5.433 14.399,5.43 14.495,5.43 L14.496,5.43 C15.566,5.43 16.546,6.185 16.889,6.482 C16.584,6.905 15.595,8.118 14.221,8.217 M11.018,6.776 C11.129,6.681 11.296,6.548 11.511,6.402 C11.553,6.758 11.706,7.116 11.948,7.407 C12.013,7.487 12.083,7.556 12.156,7.619 C11.641,7.315 11.231,6.969 11.018,6.776 M17.318,6.298 C17.264,6.245 15.997,5.006 14.496,5.006 L14.495,5.006 C12.172,5.006 10.62,6.558 10.555,6.624 C10.474,6.706 10.474,6.838 10.554,6.921 C10.573,6.94 11.013,7.389 11.684,7.826 C12.519,8.371 13.313,8.647 14.046,8.647 C14.115,8.647 14.183,8.645 14.251,8.64 C16.129,8.505 17.3,6.639 17.349,6.56 C17.401,6.476 17.388,6.367 17.318,6.298" id="Fill-11"/><path d="M10.8109,0.3586 C10.8109,0.3586 10.7179,2.2096 11.1289,2.5976 C12.8479,2.4076 15.6169,2.8636 17.5589,3.7196 C16.7949,1.9476 10.8109,0.3586 10.8109,0.3586" id="Fill-13"/><g id="Group-17" transform="translate(10.000000, 0.000000)"><path d="M1.9872,2.5442 C3.7012,2.5442 5.9272,2.9942 7.5382,3.6992 C7.2082,2.9832 5.9502,2.1842 3.8942,1.3842 C2.3992,0.8032 0.9702,0.4122 0.8202,0.3722 C0.8142,0.5382 0.7522,2.2162 1.1332,2.5872 C1.3972,2.5582 1.6842,2.5442 1.9872,2.5442 M7.5582,3.7312 C7.5572,3.7312 7.5552,3.7312 7.5542,3.7302 C5.6592,2.8952 2.8982,2.4122 1.1302,2.6082 C1.1272,2.6092 1.1242,2.6072 1.1222,2.6062 C0.9492,2.4422 0.8432,2.0152 0.8052,1.3332 C0.7772,0.8272 0.8002,0.3622 0.8002,0.3572 C0.8002,0.3552 0.8022,0.3522 0.8042,0.3502 C0.8072,0.3482 0.8102,0.3472 0.8142,0.3482 C0.8282,0.3522 2.3282,0.7522 3.9022,1.3642 C5.3562,1.9302 7.1722,2.7972 7.5682,3.7162 C7.5702,3.7202 7.56924052,3.7252 7.5662,3.7282 C7.5642,3.7302 7.5612,3.7312 7.5582,3.7312" id="Fill-15"/></g><path d="M5.974,13.3127 C7.031,14.3127 7.89,14.8687 9.322,14.9637 C10.754,15.0597 11.757,14.5357 11.757,14.5357 C11.757,14.5357 10.611,16.4807 9.226,16.8417 C6.362,17.5907 6.497,15.3437 5.974,13.3127" id="Fill-18"/><path d="M5.993,13.3459 C6.075,13.6659 6.14,13.9919 6.203,14.3069 C6.411,15.3389 6.607,16.3149 7.294,16.7429 C7.744,17.0249 8.375,17.0539 9.223,16.8319 C10.493,16.4999 11.575,14.8109 11.729,14.5609 C11.544,14.6489 10.597,15.0589 9.321,14.9749 C7.881,14.8779 7.035,14.3279 5.993,13.3459 M8.224,16.9999 C7.849,16.9999 7.537,16.9199 7.283,16.7609 C6.588,16.3269 6.391,15.3479 6.182,14.3109 C6.117,13.9849 6.049,13.6469 5.964,13.3159 C5.962,13.3109 5.965,13.3069 5.969,13.3039 C5.972,13.3019 5.978,13.3019 5.981,13.3059 C7.033,14.2999 7.876,14.8569 9.323,14.9529 C10.736,15.0479 11.742,14.5319 11.752,14.5269 C11.757,14.5239 11.762,14.5249 11.764,14.5289 C11.768,14.5319 11.768,14.5369 11.766,14.5409 C11.755,14.5609 10.602,16.4929 9.229,16.8529 C8.853,16.9499 8.519,16.9999 8.224,16.9999" id="Fill-20"/></g></g></g></g><g id="Glasses" transform="translate(261.000000, 385.000000) scale(1 1)"><g id="Glasses/Read" stroke="none" stroke-width="1" fill="none" fill-rule="evenodd"><g id="Group-3" fill="#F7B500"><path d="M21.6853283,6.70912951 C21.1497633,7.18018401 20.5187622,7.34890304 19.7530279,7.22434536 C16.7136687,6.73064402 14.9385571,3.7378627 14.2536627,0.988535032 C18.6414779,0.788110403 22.4196249,0.615994338 23.4581942,0.569568294 C23.4469664,1.61019108 23.2942687,5.29030432 21.6853283,6.70912951 L21.6853283,6.70912951 Z M11.6645374,2.30771408 C11.7835518,1.92498231 11.8913385,1.52639774 11.9912657,1.11082803 C12.4370084,1.11875442 13.2229528,1.10063694 13.7091156,1.04062279 C13.797815,1.40070771 13.9022333,1.76305732 14.0257389,2.12427459 L11.6645374,2.30771408 Z M6.71084224,7.43382873 C3.72200803,7.72031139 1.1373738,5.24048125 0.607422729,1.62717622 C3.41548972,1.49129512 7.48668162,1.30106157 11.4332452,1.11875442 C10.9235041,3.17055909 9.56943423,7.15753715 6.71084224,7.43382873 L6.71084224,7.43382873 Z M23.9982503,0.277423921 L23.9903908,0 L23.7164331,0.0124557679 C23.631102,0.016985138 19.2904434,0.212880396 14.1301572,0.449539986 L14.1200522,0.404246285 L13.8775322,0.460863411 C13.1903923,0.492569002 12.489779,0.524274593 11.7835518,0.557112527 L11.5679785,0.542392074 L11.5612418,0.567303609 C7.4271744,0.757537155 3.13591808,0.957961783 0.287431088,1.09723992 L0,1.11196037 L0.0336833306,1.40070771 C0.25262498,3.32002831 1.04306047,5.04911536 2.25790593,6.26978061 C3.37956084,7.39646143 4.77854184,8 6.2448895,8 C6.41667448,8 6.58958225,7.9920736 6.76136723,7.97508846 C8.74980652,7.78372258 10.4193769,5.9527247 11.4826474,2.86822364 L14.2199794,2.65534324 C15.166481,5.07062987 16.9438381,7.31946214 19.666574,7.76220807 C20.5872517,7.91167728 21.3855466,7.69539986 22.040126,7.11790517 C22.9170154,6.3467799 23.5109648,4.95399858 23.8096236,2.98145789 C24.0274425,1.53658882 23.9993731,0.328379335 23.9982503,0.277423921 L23.9982503,0.277423921 Z" id="Fill-1"/></g></g></g></g></svg>