<svg viewBox="49.64847715736039 129.82500000000005 330.98984771573606 454.38749999999993" xmlns="http://www.w3.org/2000/svg" overflow="visible" xmlns:xlink="http://www.w3.org/1999/xlink" width="330.98984771573606px" height="454.38749999999993px"><g id="Master/Character/Sitting on Rock" stroke="none" stroke-width="1" fill="none" fill-rule="evenodd"><g id="Sitting Body/On Chair" transform="translate(55.000000, 150.000000) scale(1 1)"><g id="Sitting Body/On Chair/Pointing Color" stroke="none" stroke-width="1" fill="none" fill-rule="evenodd"><path d="M0,427 C15.2994247,285.482454 43.3845099,204.252055 84.2552555,183.3088 C145.561374,151.893919 213.34729,162.691819 229.354109,177.302929 C245.360929,191.914039 322,346.832647 322,392.619439 C322,423.143967 322,434.604154 322,427 L0,427 Z" id="Path-11" fill="#00B8FC"/><g id="Group-5" transform="translate(51.000000, 280.514000)" fill="#FFDA2D"><path d="M0.509,57.3646 L61.75,56.9826 C61.75,56.9826 62.905,52.8906 59.675,45.2776 C58.4,42.2696 55.901,39.8476 55.254,36.3516 C53.717,28.0376 56.647,17.8726 57.609,13.3986 C20.519,26.1346 22.815,13.8626 12.139,16.5996 C12.733,20.1716 13.702,28.3226 10.917,36.9196 C5.992,42.7476 0.509,57.3646 0.509,57.3646" id="Fill-1"/><path d="M155.2317,53.7611 L223.5447,53.3351 C223.5447,53.3351 223.1377,47.3911 217.6297,41.2211 C213.7897,36.9191 210.6237,36.2441 209.9767,32.7481 C208.4397,24.4341 189.6897,4.5671 190.6517,0.0931 C153.5617,12.8281 153.6407,7.9311 142.9647,10.6681 C143.5587,14.2401 155.2317,53.7611 155.2317,53.7611" id="Fill-3"/></g><path d="M64.6154,295.9094 C64.6154,295.9094 73.7444,299.7284 82.4994,299.725402 C91.2544,299.7224 106.9944,293.6814 106.9944,293.6814 L106.9944,283.4324 C106.9944,283.4324 117.0374,281.6124 117.9754,280.7674 C118.9144,279.9234 119.8524,268.8094 119.8524,268.8094 L116.6614,268.8094 L113.1504,186.2574 C113.1504,186.2574 120.4324,182.2214 121.8794,181.9404 C123.3254,181.6584 132.8034,178.3744 137.8724,178.0924 C142.9404,177.8104 147.2584,178.1854 149.2284,178.0924 C151.1994,177.9984 162.3364,182.6904 162.3364,182.6904 L169.1254,208.6884 L186.4884,275.1374 L183.8574,276.1684 L183.8574,281.2364 L184.3304,285.6894 L186.4884,286.2114 L190.7124,284.8034 L192.3064,289.4334 L197.9384,289.4334 L237.1404,281.2714 L237.1404,271.8094 L251.0594,266.8774 L250.4624,257.4924 L247.4544,256.9294 L232.3834,222.8594 L220.3274,189.0154 L206.9484,163.0754 L197.0004,148.5284 C197.0004,148.5284 185.8314,138.2044 181.1384,139.0494 C176.4464,139.8934 158.6294,150.2184 158.6294,150.2184 C158.6294,150.2184 148.7264,156.2314 138.5764,156.3184 C128.4254,156.4044 123.5754,154.7084 123.5754,154.7084 C123.5754,154.7084 103.0124,145.6694 96.2904,145.6344 C86.6984,145.5834 76.2114,149.5604 76.2114,149.5604 C76.2114,149.5604 70.6734,153.8114 69.4534,156.9424 C68.2334,160.0724 64.6154,177.3414 64.6154,177.3414 L63.2594,198.2704 L62.1334,214.1324 L58.7544,268.0974 L57.1584,268.1914 L55.7174,270.4434 L55.0004,281.3304 L56.7834,282.6444 L63.7284,284.0534 L64.6154,295.9094 Z" id="Fill-1" fill="#FFF"/><g id="Group-16" transform="translate(46.000000, 6.000000)"><path d="M1.8186,107.279 C1.8186,107.279 12.3126,48.863 21.6036,45.484 C30.8946,42.106 58.5346,29.754 58.5346,29.754 C58.5346,29.754 69.7336,50.293 87.7436,45.797 C99.0026,42.986 104.1076,28.234 104.1076,28.234 C104.1076,28.234 129.1106,23.926 135.4826,27.407 C137.2116,28.351 144.0756,45.393 148.9966,58.773 C152.2016,67.488 140.4686,83.816 140.9766,86.576 C142.5626,95.199 133.5306,97.091 133.5306,97.091 C133.5306,97.091 134.6006,132.239 133.3446,132.983 C110.5046,146.511 84.0036,154.407 77.9866,148.355 C75.9546,146.311 66.9626,124.678 66.9626,124.678 C66.9626,124.678 37.0596,112.188 36.1886,115.344 C35.3176,118.501 1.8186,107.279 1.8186,107.279" id="Fill-6" fill="#009DE9"/><g id="Group-15" transform="translate(0.000000, 0.514000)" fill="#000"><g id="Group-10"><path d="M65.8635,151.6859 C65.9815,151.6419 66.1005,151.5979 66.2185,151.5529 C66.1385,151.2549 66.0575,150.9569 65.9775,150.6589 L65.4475,150.8369 C65.5865,151.1209 65.7245,151.4039 65.8635,151.6859 M67.5015,155.0009 C66.7055,156.2789 66.2035,157.5819 66.9605,159.3949 C67.9225,157.7549 68.4355,156.4699 67.5015,155.0009 M228.1895,3.9109 C225.6135,1.8019 220.3535,1.1829 217.3605,2.3549 C219.1975,2.5749 221.0285,3.0379 222.8285,2.9379 C224.5995,2.8399 225.9085,4.8769 228.1895,3.9109 M31.9565,141.3989 C35.1075,140.3129 38.3845,139.7779 41.4515,138.4489 C38.8205,138.3249 36.2365,138.4149 33.6555,138.5489 C31.6705,138.6539 31.5315,138.8849 31.9565,141.3989 M133.5305,96.5779 C137.8475,95.1889 138.8155,93.9829 138.5795,90.3789 C137.0395,90.9659 135.5685,91.4779 134.1475,92.1029 C133.7815,92.2629 133.3485,92.7719 133.3335,93.1379 C133.2885,94.1969 133.4385,95.2649 133.5305,96.5779 M137.7595,112.0299 C137.4435,109.3669 137.1185,107.0559 136.9075,104.7349 C136.6895,102.3279 136.5815,99.9109 136.4215,97.4299 C133.7605,98.2909 133.6125,98.4079 133.8095,100.6059 C134.0215,102.9839 134.3185,105.3569 134.6815,107.7149 C134.9565,109.5029 135.9615,110.8479 137.7595,112.0299 M170.2245,303.9229 C171.9605,302.9729 173.3335,302.2289 174.6975,301.4689 C176.0175,300.7359 177.3605,300.0369 178.6335,299.2289 C179.8865,298.4359 181.5075,298.1219 182.4105,296.6149 C178.4415,296.0589 170.5425,296.4039 168.6665,297.2589 C169.1515,299.3339 169.6455,301.4469 170.2245,303.9229 M15.9175,310.9189 C16.3955,310.8579 16.6685,310.9029 16.8295,310.7899 C19.3685,308.9989 21.9205,307.2229 24.3945,305.3459 C24.7755,305.0569 25.0325,304.2319 24.9315,303.7409 C24.2435,300.3829 23.4625,297.0439 22.6625,293.7099 C22.5385,293.1939 22.2905,292.4999 21.8895,292.2929 C20.5085,291.5799 19.1695,290.6589 17.1385,290.5999 C17.9795,297.4729 17.0645,304.1509 15.9175,310.9189 M60.2185,309.0019 C61.0105,301.8399 61.7815,294.8789 62.6085,287.3989 C59.2405,288.9139 56.3505,290.1859 53.4955,291.5319 C53.1365,291.7019 52.7805,292.2389 52.7295,292.6439 C52.3155,295.9579 51.9565,299.2809 51.6195,302.6049 C51.4995,303.7909 52.1615,304.4559 53.1985,304.9979 C55.0285,305.9549 56.7735,307.0759 58.5595,308.1169 C59.0835,308.4209 59.6285,308.6879 60.2185,309.0019 M171.4545,319.1129 C171.6005,319.1669 171.7465,319.2229 171.8925,319.2779 C172.9765,317.6709 173.9885,316.0089 175.1675,314.4739 C176.3795,312.8969 177.6665,311.3539 179.0845,309.9629 C180.4455,308.6269 181.9225,307.3569 183.5245,306.3329 C185.1935,305.2669 187.0285,304.4149 188.8745,303.6789 C190.6765,302.9579 192.5855,302.5009 194.5995,301.8819 C194.1335,300.7659 193.8105,299.9569 193.4595,299.1609 C192.0935,296.0659 191.5325,295.7129 188.2205,296.2739 C187.2245,296.4429 186.2315,296.8609 185.3355,297.3459 C181.1245,299.6279 176.9395,301.9599 172.7615,304.3029 C170.4205,305.6169 170.5445,305.6299 170.7945,308.2729 C171.0855,311.3619 171.1565,314.4709 171.3285,317.5709 C171.3565,318.0849 171.4115,318.5989 171.4545,319.1129 M160.4015,328.1459 C159.8955,331.4919 160.0925,331.7149 163.0115,332.4009 C165.2415,332.9249 167.2535,332.1469 169.3425,331.6759 C170.2225,331.4779 171.4225,331.1979 172.0425,331.6089 C174.4565,333.2069 176.9675,333.3899 179.5925,332.5829 C180.9365,332.1699 182.0505,332.4009 183.2625,332.9719 C185.0475,333.8119 187.0605,334.1799 188.8535,333.4319 C190.7455,332.6429 192.5505,332.7659 194.4675,332.8259 C195.6945,332.8629 197.1095,332.7219 198.1325,332.1279 C199.7385,331.1959 201.2105,330.5219 203.0555,331.2419 C203.4095,331.3789 203.8465,331.3089 204.2465,331.3209 C207.8715,331.4249 211.4955,330.3029 215.1225,331.3139 C215.2695,331.3549 215.4505,331.3429 215.5985,331.2989 C217.5925,330.7049 219.5115,331.0939 221.4665,331.5959 C222.2765,331.8039 223.2015,331.5919 224.0715,331.5389 C225.1755,331.4699 226.2775,331.3889 227.3775,331.2759 C228.2355,331.1859 229.1355,331.1639 229.9225,330.8609 C230.2835,330.7199 230.6395,329.9489 230.5805,329.5229 C230.5295,329.1629 229.9185,328.7499 229.4765,328.6099 C228.9665,328.4469 228.3695,328.5459 227.8105,328.5469 C222.6175,328.5509 217.4245,328.5449 212.2315,328.5689 C204.2445,328.6059 196.2575,328.7519 188.2715,328.6849 C181.2465,328.6239 174.2225,328.3209 167.1985,328.1549 C164.9835,328.1019 162.7665,328.1459 160.4015,328.1459 M49.9455,303.5379 C50.0005,299.6389 51.1785,296.2069 50.9115,292.3529 C41.9495,294.3829 33.1835,294.7409 23.9655,293.2029 C24.9625,297.1519 25.5355,300.7219 26.5475,304.3519 C34.3345,302.1479 41.9205,301.9149 49.9455,303.5379 M197.3125,290.3409 C196.0505,291.1359 195.1335,291.7229 194.2075,292.2929 C193.5615,292.6919 192.8855,293.2049 193.3385,293.9809 C193.5825,294.3999 194.3415,294.5779 194.9035,294.7319 C195.3525,294.8549 195.8795,294.6929 196.3275,294.8159 C196.6805,294.9149 196.9675,295.2539 197.5775,295.7039 C196.2285,296.0639 195.2735,296.3189 194.0245,296.6519 C194.6195,298.0529 195.1555,299.2699 195.6535,300.5019 C196.0385,301.4569 196.6745,301.7669 197.7165,301.6809 C202.3855,301.2989 206.9495,301.8629 211.3925,303.3829 C211.7925,303.5199 212.2585,303.4569 213.0155,303.5109 C209.6265,298.6799 206.3025,294.2149 203.2775,289.5559 C200.2135,284.8359 197.4445,279.9229 194.4815,274.9889 C193.2815,275.2649 192.1115,275.4869 190.9715,275.8099 C189.4995,276.2269 189.3375,276.4669 189.6465,278.0589 C190.3765,281.8169 191.1515,285.5659 191.9475,289.3099 C192.0725,289.8999 192.4035,290.4449 192.6005,290.9149 C194.2355,291.1989 195.1965,288.9579 197.3125,290.3409 M145.6355,279.0339 C146.1255,283.4929 146.2775,283.6049 150.1815,282.7009 C150.3375,282.6649 150.4885,282.6099 150.6425,282.5709 C159.4525,280.3289 168.3035,278.3039 177.3005,276.9229 C181.3805,276.2969 185.4035,275.3049 189.5735,274.4559 C190.0755,271.5979 190.1705,268.8869 190.0265,265.7999 C174.7935,269.5979 160.3495,274.5819 145.6355,279.0339 M36.1335,106.0849 C35.3155,106.0119 34.6885,105.9849 34.0695,105.8959 C30.8425,105.4319 27.5135,105.3069 24.4135,104.4039 C18.5355,102.6919 12.5855,101.1309 7.0675,98.3209 C3.7175,96.6149 3.1895,96.9289 1.9505,100.4759 C1.8455,100.7769 1.7935,101.0989 1.6675,101.3899 C0.9175,103.1169 1.3905,104.5629 2.8315,105.6179 C4.1705,106.5979 5.5535,107.6039 7.0675,108.2469 C14.9625,111.5969 23.1225,113.9449 31.7525,114.3819 C33.1625,114.4549 34.5645,114.6629 36.1885,114.8309 C36.6325,111.7909 36.4425,108.9889 36.1335,106.0849 M5.6815,330.6739 C5.6215,330.9089 5.5195,331.1349 5.5085,331.3649 C5.3265,335.3319 5.8315,335.8429 9.5945,334.9199 C11.3175,334.4979 12.6395,334.7919 14.0715,335.7789 C14.8445,336.3129 16.0725,336.6649 16.9555,336.4679 C18.8115,336.0539 20.5685,335.2049 22.4245,336.4239 C22.5735,336.5229 22.8835,336.3439 23.1185,336.3499 C24.1255,336.3739 25.1315,336.4469 26.1375,336.4499 C27.0075,336.4539 27.8755,336.3789 28.7445,336.3539 C32.2875,336.2489 35.8305,336.1459 39.3745,336.0579 C39.6015,336.0519 39.8305,336.2289 40.0625,336.2409 C41.0765,336.2929 42.1235,336.4939 43.0985,336.3149 C46.1605,335.7539 49.2115,336.5909 52.2645,336.2559 C53.5015,336.1219 54.7595,336.1929 56.0015,336.1019 C56.5505,336.0629 57.0915,335.7309 57.6295,335.7469 C59.9765,335.8159 62.3265,335.9159 64.6685,336.0959 C68.2715,336.3729 69.3415,335.1959 68.6875,331.6619 C68.4905,330.5999 67.9345,330.1339 66.9145,330.1159 C66.1155,330.0999 65.3155,330.0729 64.5175,330.0929 C59.7275,330.2149 54.9375,330.3579 50.1475,330.4769 C44.3975,330.6219 38.6475,330.8169 32.8955,330.8629 C28.3455,330.8999 23.7945,330.7169 19.2425,330.6819 C14.7855,330.6469 10.3275,330.6739 5.6815,330.6739 M160.1335,282.1259 C160.7875,282.9489 161.3895,283.7549 162.0445,284.5169 C164.0865,286.8939 165.8125,289.4529 166.8635,292.4379 C167.8235,295.1639 167.8895,295.2219 170.8105,295.1619 C175.4335,295.0649 180.0545,294.8439 184.6785,294.8059 C186.4355,294.7909 187.9565,294.3179 189.4125,293.4199 C191.1445,292.3529 191.1375,292.3699 190.7235,290.3749 C189.8825,286.3219 189.0655,282.2619 188.2165,278.2099 C188.1225,277.7609 187.8825,277.3419 187.7265,276.9529 C184.8445,276.7259 162.6245,280.8489 160.1335,282.1259 M60.2545,277.1499 C46.2925,279.1759 32.8075,278.6589 19.3345,278.5789 C19.1135,278.5769 18.8915,278.7159 18.4265,278.8709 C18.8075,282.2349 19.2045,285.6119 19.9975,288.9249 C20.1205,289.4419 20.6895,290.0359 21.1955,290.2419 C22.8115,290.8979 24.4595,291.5819 26.1605,291.9049 C30.8795,292.7959 35.6255,293.0049 40.4385,292.4769 C45.8595,291.8829 51.1085,290.9129 56.1705,288.7179 C58.6825,287.6279 60.0635,286.3829 59.9255,283.5399 C59.8295,281.5859 60.1115,279.6149 60.2545,277.1499 M159.7015,309.9279 C160.6025,309.2899 161.1005,308.8519 161.6715,308.5499 C163.4335,307.6179 165.2385,306.7639 166.9995,305.8289 C168.7715,304.8869 168.8835,304.6719 168.5425,302.8339 C168.2965,301.5029 167.9955,300.1779 167.6375,298.8729 C167.0625,296.7729 166.8255,296.6219 164.6335,296.7579 C163.9255,296.8019 163.1565,297.0559 162.9965,295.7759 C163.9635,295.4279 164.9415,295.0769 166.0255,294.6869 C164.8555,289.7149 161.8795,286.1409 158.3755,282.9279 C158.0275,282.6099 157.3075,282.4499 156.8345,282.5519 C153.9765,283.1759 151.1405,283.8989 147.9655,284.6679 C148.4585,286.3499 148.8425,287.7849 149.2975,289.1979 C151.5155,296.1049 153.8915,302.9659 155.9325,309.9259 C157.1635,314.1239 157.8835,318.4719 158.8325,322.7519 C159.5085,325.8069 161.1085,327.0759 164.0085,326.8709 C165.4995,326.7639 166.9925,326.6839 168.6815,326.5799 C169.3805,325.8749 169.5795,324.8219 169.6165,323.6739 C169.6595,322.3229 169.8425,320.9749 169.8725,319.6239 C169.9345,316.8349 170.0665,314.0389 169.9095,311.2589 C169.8275,309.8129 169.8465,308.2319 168.7995,306.6509 C167.3425,307.3759 165.9775,308.1639 164.5315,308.7479 C163.1725,309.2959 162.0055,310.6389 159.7015,309.9279 M72.8065,263.5319 C72.1725,263.4979 71.9145,263.4149 71.7105,263.4869 C70.5185,263.9069 69.2835,264.2539 68.1685,264.8299 C65.2735,266.3249 62.0855,266.6909 58.9815,267.3849 C52.7405,268.7829 46.4645,269.9179 40.0215,269.5249 C38.3495,269.4229 36.6765,269.2859 35.0175,269.0639 C27.9675,268.1229 20.9965,266.8279 14.3875,264.0579 C13.3725,263.6319 12.3925,263.1209 11.1395,262.5269 C10.8705,263.4269 10.5465,264.1449 10.4525,264.8909 C10.1155,267.5829 9.8105,270.2829 9.5815,272.9859 C9.4075,275.0309 9.5655,275.3889 11.6345,275.8009 C14.4395,276.3609 17.2985,276.9279 20.1405,276.9689 C30.3635,277.1179 40.6015,277.6729 50.8035,276.5869 C57.0675,275.9199 63.3155,275.1009 69.5585,274.2589 C71.7575,273.9629 72.2395,273.3969 72.5255,271.2209 C72.7645,269.4019 72.8765,267.5629 72.9795,265.7289 C73.0185,265.0399 72.8765,264.3389 72.8065,263.5319 M138.7015,279.4059 C140.1015,279.0509 141.0235,278.8569 141.9225,278.5839 C154.8275,274.6809 167.7115,270.7029 180.6435,266.8899 C184.8995,265.6359 189.0895,263.9869 193.6325,263.8829 C194.2305,263.8699 194.8195,263.4509 195.4145,263.2239 C196.3755,262.8589 197.3245,262.4559 198.3025,262.1429 C199.7465,261.6819 201.1975,261.2289 202.6715,260.8799 C203.9025,260.5889 204.3805,259.9819 204.2545,258.6759 C204.0935,257.0109 204.1665,255.3239 204.0885,253.6489 C204.0605,253.0499 203.8875,252.4589 203.7435,251.6469 C201.9815,251.9479 200.3905,252.0969 198.8675,252.4999 C190.7715,254.6419 182.6855,256.8209 174.6115,259.0409 C170.6125,260.1409 166.6415,261.3439 162.6665,262.5259 C158.6895,263.7079 154.7665,265.0999 150.7415,266.0719 C146.7085,267.0449 143.1615,269.3439 139.0605,270.0629 C138.1885,270.2149 137.5655,270.7339 137.6835,271.7109 C137.9765,274.1439 138.3225,276.5699 138.7015,279.4059 M111.0705,146.1179 C110.8025,146.0559 110.6315,145.9569 110.5045,145.9979 C109.8985,146.1929 109.2945,146.4009 108.7095,146.6509 C98.9405,150.8119 88.9025,151.9209 78.5285,149.3579 C78.0515,149.2409 77.5185,149.3429 76.8875,149.3429 C77.5855,153.7489 76.3215,157.5399 74.2715,161.0019 C72.4915,164.0079 70.3265,166.7979 68.1915,169.5759 C67.4145,170.5859 66.8845,171.5249 66.9705,172.8079 C67.0615,174.1619 67.0325,175.5249 67.1445,176.8749 C67.1935,177.4609 67.4655,178.0289 67.7065,178.8449 C68.7045,178.3259 69.4645,177.9189 70.2335,177.5329 C71.7285,176.7809 73.1805,175.9119 74.7365,175.3149 C82.1775,172.4609 89.8865,170.9739 97.8735,170.8799 C103.5335,170.8139 109.0435,171.2889 113.9985,174.3989 C114.1585,174.4989 114.4355,174.4119 114.9265,174.4119 C113.0665,164.9959 110.6555,155.7219 111.0705,146.1179 M230.4085,326.9609 C225.6035,309.6099 211.3095,301.7129 197.3085,303.1489 C182.5555,304.6619 173.3865,316.4569 170.9135,326.6899 C190.7005,328.2699 210.4475,326.9209 230.4085,326.9609 M67.6675,328.7819 C67.8105,328.3559 67.9275,328.1929 67.8995,328.0609 C67.5945,326.6599 67.2875,325.2579 66.9415,323.8669 C64.6685,314.7169 59.1155,308.5399 50.2095,305.3799 C46.0425,303.9029 41.7255,304.0339 37.4155,304.0899 C30.6445,304.1779 24.5805,306.1229 19.3545,310.6229 C14.4025,314.8859 9.8855,319.4559 7.1175,325.4849 C6.6735,326.4529 6.3795,327.4909 5.9055,328.7969 C26.8005,330.1169 47.2785,329.0179 67.6675,328.7819 M6.8065,109.9879 C6.5375,111.1399 6.2835,111.8979 6.1895,112.6739 C5.8095,115.8439 5.4385,119.0149 5.1405,122.1929 C4.9255,124.4959 4.7715,126.8069 4.6945,129.1179 C4.5825,132.4959 6.3105,134.7769 9.3555,135.9259 C11.2735,136.6499 13.3315,137.0619 15.3605,137.4239 C21.0145,138.4319 26.6725,137.4079 32.3295,137.3149 C39.1925,137.2029 46.0555,137.0569 52.9195,137.0229 C56.3745,137.0049 59.4765,138.2269 61.4795,141.0809 C64.0895,144.7949 66.4025,148.7219 68.7535,152.6119 C69.6065,154.0259 69.7085,155.6779 69.2595,157.2659 C68.6965,159.2559 67.9765,161.2019 67.3625,163.1769 C67.1055,164.0039 66.8005,164.8579 66.7795,165.7069 C66.7555,166.7189 67.8075,167.1709 68.6585,166.5919 C68.9805,166.3729 69.2735,166.0629 69.4845,165.7329 C71.2465,162.9829 72.9985,160.2259 74.7165,157.4479 C74.9555,157.0609 74.9855,156.5439 75.1195,156.0899 C76.4675,151.5339 75.1935,147.1989 73.7435,142.9809 C72.3175,138.8349 70.4475,134.8439 68.8345,130.7609 C67.7155,127.9309 65.7325,125.9579 63.0515,124.6489 C61.9065,124.0889 60.7315,123.5669 59.5255,123.1629 C55.5925,121.8459 51.6375,120.5959 47.6945,119.3129 C42.0565,117.4789 36.2875,116.3439 30.3655,115.9469 C28.2245,115.8029 26.0265,115.7419 23.9755,115.1909 C19.1305,113.8899 14.3575,112.3209 9.5555,110.8559 C8.7315,110.6049 7.9115,110.3369 6.8065,109.9879 M225.0975,5.5109 C224.6435,5.1909 224.3105,4.7799 223.9175,4.7089 C222.5895,4.4699 221.2365,4.1929 219.8985,4.21277495 C213.2015,4.3199 206.5065,4.5589 199.8085,4.6649 C194.1355,4.7559 188.4545,4.5809 182.7875,4.8029 C178.5875,4.9669 174.3575,4.9759 170.2685,6.4679 C167.4055,7.5129 165.4105,9.1969 164.4855,12.0319 C164.0735,13.2939 164.0355,14.6799 163.8315,16.0099 C163.5185,18.0459 163.4615,20.1619 162.8575,22.1079 C158.5735,35.9049 154.4475,49.7419 150.6095,63.6749 C147.8375,73.7419 144.0495,83.5259 140.8245,93.4709 C139.9175,96.2679 139.2175,99.1609 138.7465,102.0619 C138.1445,105.7769 138.9435,109.3659 140.4535,112.8009 C140.9655,113.9649 141.8125,114.6679 142.9445,115.2359 C147.4235,117.4819 152.1785,117.5959 156.9925,117.1239 C159.9035,116.8389 162.2185,115.4379 164.0555,113.0829 C166.5745,109.8549 168.0065,106.1519 169.0585,102.2879 C172.7725,88.6569 176.2745,74.9849 178.8185,61.0639 C181.0425,48.8919 183.2085,36.7189 185.0525,24.4839 C185.5725,21.0349 185.8845,17.5119 187.3995,14.2499 C188.4805,11.9219 190.0235,10.2349 192.5575,9.6659 C194.1855,9.3019 195.8445,8.9819 197.5055,8.8769 C201.5675,8.6229 205.6415,8.5679 209.7045,8.3109 C213.3665,8.0799 217.0265,7.7629 220.6695,7.3309 C222.1955,7.1489 223.8225,6.9199 225.0975,5.5109 M43.3705,268.1549 C44.9615,268.0549 47.3845,268.1069 49.7355,267.7129 C54.2925,266.9499 58.8105,265.9559 63.3355,265.0109 C64.3125,264.8069 65.3505,264.6769 65.7955,263.4239 C65.9345,263.0319 66.8065,262.7939 67.3825,262.6809 C69.0885,262.3429 69.4795,262.1539 69.6195,260.4619 C69.7765,258.5599 69.7595,256.6279 69.6385,254.7209 C69.2525,248.5829 68.6625,242.4559 68.3695,236.3149 C67.7335,222.9869 67.2395,209.6519 66.6735,196.3209 C66.4635,191.3719 66.2645,186.4209 65.9635,181.4779 C65.7355,177.7359 65.2975,174.0069 65.0515,170.2659 C64.7925,166.2889 64.7645,162.2929 64.4235,158.3249 C64.1355,154.9899 63.6765,151.6549 63.0515,148.3659 C62.2315,144.0449 58.7485,141.0559 54.3835,140.4249 C47.8055,139.4749 41.3175,139.7769 34.9835,141.9149 C29.5035,143.7639 25.2335,146.9639 23.2845,152.6729 C23.0015,153.5029 22.6465,154.3119 22.4025,155.1539 C20.6385,161.2339 19.5895,167.4539 19.0845,173.7479 C18.6185,179.5599 18.4285,185.3919 18.0305,191.2089 C17.3275,201.4879 16.4955,211.7569 15.8305,222.0389 C15.0205,234.5539 14.3255,247.0769 13.5885,259.5969 C13.4465,262.0039 13.5495,262.2409 15.8805,263.1089 C24.4835,266.3109 33.3925,267.9299 43.3705,268.1549 M199.8305,249.5779 C199.6255,249.0689 199.4105,248.4759 199.1515,247.9029 C196.6525,242.3729 193.9115,236.9399 191.6945,231.2999 C188.0735,222.0869 184.8895,212.7049 181.3445,203.4609 C175.4475,188.0839 168.6415,173.1049 160.9395,158.5499 C158.7045,154.3289 156.0845,150.2769 153.3075,146.3849 C150.2255,142.0649 146.4175,138.3959 141.6255,135.9179 C138.6145,134.3619 135.3855,133.6299 132.1375,134.7939 C128.1675,136.2169 124.3065,137.9529 120.4285,139.6229 C118.1615,140.5999 116.5705,142.4519 115.0555,144.3009 C113.1195,146.6649 112.0825,149.3559 112.5525,152.5089 C113.0485,155.8239 113.2705,159.1889 113.9385,162.4649 C115.3715,169.4869 116.8905,176.4969 118.6025,183.4549 C120.9275,192.9099 123.4285,202.3229 125.9205,211.7369 C130.6995,229.7919 135.5235,247.8369 140.3355,265.8849 C140.4935,266.4789 140.7155,267.0569 140.9525,267.7799 C141.5495,267.6329 142.0025,267.5439 142.4405,267.4109 C153.7405,263.9869 165.0155,260.4809 176.3435,257.1579 C183.0785,255.1829 189.8925,253.4819 196.6785,251.6869 C197.9435,251.3519 199.1445,250.9979 199.8305,249.5779 M36.0075,104.1139 C36.0875,103.6159 36.2175,103.1589 36.2275,102.6989 C36.3745,95.9839 36.4975,89.2689 36.6455,82.5539 C36.6655,81.6829 36.7265,80.7999 36.9125,79.9539 C36.9775,79.6559 37.4705,79.4519 38.0555,78.9659 C37.5955,91.2489 37.6545,103.1099 37.8265,115.0299 C38.7015,115.3189 39.3645,115.5739 40.0475,115.7549 C42.5915,116.4309 45.1785,116.9699 47.6825,117.7689 C52.6255,119.3449 57.5865,120.8949 62.4175,122.7709 C66.2395,124.2559 69.2375,126.7579 70.6195,130.9339 C72.2725,135.9289 74.2415,140.8199 75.9545,145.7969 C76.3405,146.9189 76.8675,147.6469 77.9865,147.8409 C81.1275,148.3869 84.2595,149.1589 87.4255,149.3429 C96.1075,149.8499 104.1645,147.3769 111.8775,143.6119 C112.5045,143.3049 112.9925,142.7249 113.5755,142.3159 C115.4615,140.9909 117.2265,139.3969 119.2855,138.4309 C123.8255,136.3019 128.5155,134.4929 133.3445,132.4689 C134.0725,125.8419 133.3495,118.9889 133.0265,112.1589 C132.6995,105.2269 131.7305,98.3279 131.1435,91.4059 C130.5655,84.5929 129.3185,77.8889 127.7275,71.0739 C129.2015,71.0039 129.3425,71.8029 129.4945,72.5749 C130.2905,76.6459 131.0445,80.7259 131.8885,84.7879 C132.3005,86.7709 132.0485,88.9129 133.1615,90.8609 C134.7025,90.3169 136.0995,89.7229 137.5525,89.3369 C139.3415,88.8629 140.3995,87.8329 140.9765,86.0619 C143.6715,77.7869 146.4675,69.5439 149.1305,61.2579 C149.4195,60.3579 149.293753,59.1869 148.9965,58.2589 C148.0705,55.3709 147.0485,52.5079 145.9195,49.6929 C144.1075,45.1729 142.3565,40.6149 140.2355,36.2389 C138.9625,33.6109 137.2645,31.1029 135.3555,28.8869 C131.4585,24.3639 126.2895,22.8169 120.4425,23.5149 C116.0065,24.0439 111.5925,24.7709 107.1525,25.2609 C105.4805,25.4459 104.6805,26.1429 104.1075,27.7199 C103.1045,30.4839 102.0945,33.3229 100.5565,35.7999 C95.6375,43.7249 88.6615,46.9049 79.3175,45.1269 C71.8695,43.7099 66.3985,39.5139 62.1045,33.5039 C61.5085,32.6679 60.9315,31.8179 60.2625,30.8549 C59.5195,31.0449 58.8305,31.1879 58.1645,31.4019 C56.1135,32.0599 54.0745,32.7539 52.0255,33.4199 C42.4655,36.5279 32.7095,39.1299 23.8185,43.9929 C21.3815,45.3259 19.1195,46.9909 16.8305,48.5799 C15.4015,49.5719 14.6795,51.0199 14.1875,52.7179 C11.4035,62.3219 9.4115,72.1009 7.5435,81.9109 C6.8715,85.4399 6.1225,88.9609 5.6475,92.5189 C5.2205,95.7179 5.4395,95.9759 8.3315,97.2919 C14.7475,100.2129 21.4435,102.3169 28.3415,103.7179 C30.8075,104.2199 33.3475,104.7189 36.0075,104.1139 M29.8825,139.0619 C28.0195,139.0619 26.2735,139.1109 24.5315,139.0509 C20.8655,138.9259 17.2005,138.7659 13.5385,138.5689 C12.7515,138.5269 11.9615,138.3179 11.1965,138.1009 C4.3765,136.1609 2.9465,132.8749 3.1905,126.8859 C3.3205,123.7029 3.8605,120.5359 4.2225,117.3619 C4.4855,115.0609 4.7295,112.7559 5.0475,110.4629 C5.1745,109.5479 4.9155,108.9599 4.1265,108.4739 C3.3145,107.9729 2.5785,107.3469 1.8185,106.7649 C0.1605,105.4969 -0.3235,103.7649 0.2025,101.8469 C0.6625,100.1639 1.2935,98.5029 2.0545,96.9319 C2.3955,96.2289 3.2395,95.7679 3.6145,95.4199 C5.2615,86.9119 6.7485,78.5859 8.5165,70.3219 C9.8365,64.1579 11.5415,58.0759 13.0325,51.9479 C13.4465,50.2469 14.2135,48.7669 15.6145,47.7479 C17.9335,46.0629 20.2365,44.3129 22.7265,42.9119 C28.6685,39.5699 35.0545,37.2649 41.5585,35.2669 C45.3735,34.0949 49.1335,32.7439 52.9615,31.6219 C56.1105,30.6979 58.8635,28.9639 61.8075,27.6229 C63.8425,26.6969 65.8765,25.7649 67.9245,24.8679 C68.2395,24.7299 68.6315,24.7659 69.2205,24.6919 C68.6685,26.7249 66.9435,26.7959 65.7165,27.4589 C64.4655,28.1349 63.1415,28.6759 61.5925,29.3959 C62.0295,30.3339 62.2975,31.1499 62.7495,31.8459 C67.5235,39.2119 74.1985,43.5439 83.0265,44.2439 C88.1915,44.6529 92.6065,42.8369 96.2505,39.1919 C99.3115,36.1289 101.2515,32.3929 102.5185,28.2899 C102.6765,27.7809 102.6735,27.2199 102.7425,26.7019 C101.1915,25.8229 99.3485,27.1149 97.6205,25.7509 C98.2715,25.4539 98.5825,25.2249 98.9215,25.1709 C101.1985,24.8059 103.4785,24.4599 105.7625,24.1429 C109.3175,23.6479 112.8675,23.1029 116.4345,22.7239 C119.2825,22.4209 122.1545,22.1649 125.0125,22.1909 C129.1325,22.2279 132.5275,24.1549 135.4825,26.8929 C137.6135,28.8679 139.4065,31.1519 140.6085,33.7839 C142.8955,38.7909 145.0475,43.8609 147.1915,48.9319 C148.0615,50.9899 148.7585,53.1209 149.5585,55.2079 C149.6895,55.5499 149.9525,55.8409 150.4135,56.5589 C150.8285,55.5189 151.1555,54.8439 151.3725,54.1349 C154.6625,43.3649 157.9885,32.6049 161.1775,21.8039 C161.8495,19.5279 162.0655,17.1079 162.3855,14.7399 C162.9975,10.2219 164.8605,6.7409 169.5135,5.2029 C172.3465,4.2659 175.2005,3.6439 178.1805,3.5549 C183.8505,3.3859 189.5245,3.2859 195.1855,2.9679 C197.8815,2.8179 200.5465,2.1849 203.2365,1.8619 C210.2135,1.0229 217.1875,0.1299 224.2485,0.6309 C225.8955,0.7479 227.4155,1.1369 228.6945,2.1789 C229.8395,3.1129 229.8915,4.4549 228.6805,5.2019 C225.6495,7.0699 222.6665,9.1119 218.8435,9.0329 C217.6545,9.0079 216.4625,9.2799 215.2665,9.3529 C211.6835,9.5729 208.0955,9.7299 204.5135,9.9699 C200.9335,10.2099 197.3525,10.4549 193.7845,10.8209 C191.0425,11.1029 189.4265,12.7409 188.4525,15.3299 C187.1105,18.8949 186.7675,22.6399 186.2095,26.3309 C184.3935,38.3349 182.2395,50.2759 180.0345,62.2139 C177.4625,76.1349 173.9305,89.8079 170.0985,103.4129 C169.3895,105.9299 168.3005,108.3699 167.1545,110.7319 C164.4885,116.2239 160.0505,118.7839 153.8975,118.8999 C147.7965,119.0149 142.4675,117.0379 137.4285,113.8929 C136.8875,113.5559 136.3755,113.1739 135.8445,112.8199 C135.7835,112.7789 135.6935,112.7779 135.4075,112.7049 C135.3295,113.2219 135.1895,113.7209 135.1905,114.2189 C135.2005,119.7329 135.2345,125.2479 135.2575,130.7619 C135.2645,132.5399 135.3835,132.8009 137.0005,133.0159 C140.8825,133.5309 144.0565,135.4789 147.0065,137.8609 C152.3135,142.1469 156.2625,147.5609 159.5995,153.4379 C165.7625,164.2899 170.9435,175.6189 176.0615,186.9919 C181.7445,199.6209 185.7935,212.8569 190.9135,225.6879 C193.8725,233.1009 197.3245,240.3179 200.5445,247.6269 C201.1885,249.0899 201.9755,250.2689 203.8535,250.2049 C204.7905,250.1729 205.2925,250.8649 205.3425,251.7689 C205.4915,254.4809 205.6485,257.1949 205.7055,259.9099 C205.7315,261.1499 204.8005,261.6189 203.7225,261.9699 C200.3855,263.0589 197.0745,264.2279 193.7495,265.3539 C191.4685,266.1249 191.4525,266.1169 191.4025,268.5329 C191.3735,269.9709 191.3835,271.4109 191.3975,272.8489 C191.3995,273.0749 191.5115,273.2989 191.5635,273.4909 C191.7415,273.5889 191.8695,273.7179 192.0075,273.7289 C193.2525,273.8269 194.9175,273.4369 195.6515,274.0929 C196.8185,275.1359 197.3865,276.8619 198.1655,278.3219 C198.5745,279.0889 198.8175,279.9509 199.2635,280.6929 C204.3855,289.1969 210.0895,297.2979 216.2965,305.0429 C216.7875,305.6569 217.4255,306.1639 218.0375,306.6669 C223.4665,311.1419 228.1715,316.1929 230.8755,322.8249 C231.6825,324.8039 232.5745,326.7169 232.2145,329.0299 C231.7875,331.7609 230.9965,332.8889 228.3445,332.7109 C226.7315,332.6039 225.1975,332.7649 223.6245,332.9019 C222.5965,332.9919 221.5005,333.0429 220.5245,332.7789 C218.9205,332.3449 217.4065,332.4769 215.7965,332.7049 C214.5815,332.8759 213.2925,332.4699 212.0315,332.3779 C211.1115,332.3119 210.1605,332.1929 209.2675,332.3509 C207.0545,332.7439 204.8815,333.1329 202.6295,332.5269 C201.5505,332.2359 200.4725,332.3019 199.4355,333.0379 C197.5015,334.4109 195.3045,334.5229 193.0085,334.1349 C192.1925,333.9979 191.2095,334.0099 190.4785,334.3429 C188.0495,335.4519 185.6475,335.2939 183.2625,334.4109 C181.7815,333.8629 180.3775,333.7479 178.8255,334.0919 C176.5215,334.6049 174.1915,334.5999 172.1145,333.2479 C171.0985,332.5869 170.1705,332.7919 169.1545,333.1229 C166.4345,334.0109 163.6895,334.1999 160.9185,333.3409 C159.5445,332.9159 158.8325,332.0019 158.6525,330.5699 C157.3195,319.9199 154.7615,309.5639 151.0925,299.4829 C150.0345,296.5729 148.8545,293.7069 147.7535,290.8109 C147.4985,290.1409 147.3005,289.4439 147.1365,288.7459 C146.7205,286.9689 146.4165,285.2169 145.2745,283.6369 C144.5295,282.6049 144.3895,281.1359 143.9025,279.6239 C142.6015,279.9549 141.4805,280.2919 140.3375,280.5189 C138.1405,280.9529 137.3645,280.4549 137.0385,278.2489 C136.7215,276.1179 136.5665,273.9619 136.3425,271.8169 C136.2035,270.4949 136.5385,269.3799 137.9235,268.9539 C139.2595,268.5399 139.3615,267.7089 139.0545,266.5369 C137.2585,259.6619 135.5465,252.7639 133.7095,245.9009 C129.3105,229.4689 124.8215,213.0619 120.4495,196.6239 C118.9515,190.9919 117.6375,185.3089 116.3555,179.6229 C115.9725,177.9239 115.1095,176.8289 113.6995,175.8709 C109.9135,173.3009 105.6685,172.3679 101.2245,172.2289 C92.0095,171.9409 83.0865,173.5119 74.5425,176.9779 C72.4095,177.8429 70.4315,179.1119 68.4455,180.2989 C68.0045,180.5629 67.6015,181.2569 67.5735,181.7749 C67.4895,183.2869 67.5895,184.8099 67.6445,186.3279 C67.9225,193.9969 68.1375,201.6679 68.5075,209.3329 C69.0655,220.9069 69.7255,232.4759 70.3555,244.0449 C70.6025,248.5949 70.9145,253.1419 71.1345,257.6919 C71.1955,258.9479 71.0375,260.2129 70.9725,261.6289 C71.5675,261.6749 72.0175,261.7309 72.4685,261.7409 C73.6505,261.7659 74.2855,262.3969 74.2295,263.5369 C74.0825,266.5639 73.9795,269.6019 73.6205,272.6079 C73.4025,274.4369 72.1645,275.5129 70.2215,275.7709 C67.4655,276.1379 64.7265,276.6339 61.7735,277.1089 C61.5545,279.9939 61.3455,282.7449 61.1285,285.6069 C61.6685,285.6719 61.9625,285.7019 62.2555,285.7449 C64.0215,286.0069 64.2985,286.3399 64.0685,288.0819 C63.5765,291.8029 63.0355,295.5179 62.5605,299.2409 C62.0765,303.0479 61.6885,306.8699 62.2265,310.7019 C62.3315,311.4449 62.6785,312.2339 63.1355,312.8329 C65.8965,316.4579 67.7595,320.4399 68.5925,324.9529 C68.8975,326.6139 69.7595,328.1719 70.4065,329.8809 C70.3505,330.9669 70.1735,332.2789 70.2415,333.5789 C70.3585,335.7989 69.8505,336.7479 67.7115,337.2029 C66.5785,337.4439 65.3685,337.3409 64.1925,337.3619 C63.0865,337.3799 61.9765,337.3149 60.8725,337.3589 C58.2775,337.4619 55.6815,337.7339 53.0915,337.6909 C51.6755,337.6669 50.2835,337.3629 48.8445,337.6849 C48.1705,337.8359 47.3545,337.8169 46.7175,337.5749 C45.5755,337.1409 44.5405,337.3059 43.4585,337.6679 C42.2205,338.0819 41.0195,338.1419 39.7315,337.6559 C38.9735,337.3699 38.0495,337.5019 37.1985,337.4889 C35.5375,337.4599 33.8765,337.4699 32.2155,337.4419 C31.9015,337.4359 31.5475,337.1989 31.2835,337.2859 C28.7215,338.1279 26.1015,337.6619 23.5065,337.6709 C22.7195,337.6739 21.9325,337.5219 21.1445,337.5039 C20.3035,337.4859 19.3955,337.3469 18.6325,337.6029 C16.5735,338.2939 14.7725,338.0679 12.9735,336.8159 C12.3335,336.3699 11.3655,336.2559 10.5435,336.2459 C9.6835,336.2349 8.8265,336.5819 7.9575,336.6819 C5.4675,336.9679 4.4495,336.2959 4.1555,333.8739 C3.8875,331.6709 3.7975,329.4969 4.7355,327.2979 C6.6725,322.7639 9.1015,318.5839 12.5275,315.0239 C13.4485,314.0669 13.8615,313.0009 14.1635,311.6879 C15.7525,304.7769 16.3735,297.8169 15.8315,290.7439 C15.6975,288.9919 15.8685,288.8919 18.3505,288.0139 C17.9255,285.3219 17.4735,282.5819 17.0685,279.8349 C16.8995,278.6929 16.2825,278.2899 15.1595,278.1169 C13.5105,277.8639 11.8735,277.4429 10.2865,276.9229 C8.5125,276.3429 8.1705,275.9149 8.3005,274.1399 C8.5605,270.5599 8.9485,266.9879 9.3435,263.4189 C9.5145,261.8789 10.2585,260.7089 11.9775,260.4629 C12.1745,258.2869 12.4155,256.2279 12.5375,254.1629 C13.0795,244.9069 13.5465,235.6469 14.1205,226.3939 C14.6595,217.7009 15.3145,209.0139 15.8865,200.3229 C16.4225,192.1899 16.8995,184.0539 17.4285,175.9209 C17.8975,168.7259 19.0225,161.6269 21.0145,154.6999 C22.3665,149.9979 24.5975,145.8079 29.0095,143.1519 C30.6885,142.1419 30.1455,140.5869 29.8825,139.0619" id="Fill-8"/></g><path d="M159.8167,289.0648 C159.4117,289.3598 159.1727,289.6588 159.0067,289.6238 C158.7857,289.5758 158.5707,289.2928 158.4557,289.0588 C158.4177,288.9818 158.7127,288.6018 158.8297,288.6138 C159.0877,288.6398 159.3297,288.8278 159.8167,289.0648" id="Fill-11"/><path d="M197.5061,285.3109 C197.1831,285.4389 196.9381,285.6239 196.8111,285.5639 C196.6721,285.4969 196.6101,285.2069 196.5851,285.0049 C196.5781,284.9529 196.8711,284.7779 196.9561,284.8159 C197.1331,284.8949 197.2621,285.0789 197.5061,285.3109" id="Fill-13"/></g></g></g></g><g id="Head" transform="translate(168.000000, 130.000000) scale(1 1)" fill="#000"><g id="Head/Curly Bob" stroke="none" stroke-width="1" fill="none" fill-rule="evenodd"><g id="Group-19" transform="translate(-12.000000, 2.000000)" fill="#000"><path d="M46.9601,21.1287 C48.1891,22.2707 47.5831,23.6797 46.8811,25.3117 C46.7551,25.6057 46.6281,25.9087 46.5071,26.2157 C46.7961,24.5107 46.5711,22.8837 45.6851,21.2507 C45.1101,20.1927 44.9851,19.0867 45.0331,17.8907 C45.3281,19.0597 45.8981,20.1407 46.9601,21.1287 M48.2421,31.6987 C49.3771,32.2047 50.6631,32.7787 50.9681,33.7187 C51.1191,34.1827 51.0211,34.7057 50.6671,35.3177 C49.7051,36.9877 50.3441,38.6897 50.9661,39.7417 C50.9591,39.7377 50.9521,39.7337 50.9441,39.7317 C49.3471,38.9587 49.2221,38.7027 49.6191,36.9627 C50.3311,33.8397 50.3311,33.8397 47.7291,32.0917 C45.7991,30.7947 45.4051,30.2507 45.9571,28.3127 C45.8951,29.0317 45.9861,29.7647 46.3731,30.4987 C46.6251,30.9767 47.3741,31.3117 48.2421,31.6987 M8.3961,27.5547 C7.9131,27.8367 7.4361,28.1307 6.9701,28.4397 C3.9001,30.4677 3.5131,31.5627 4.6141,35.0547 C5.2871,37.1907 5.2151,38.5387 4.2001,39.8567 C4.6611,38.7207 4.8621,37.5057 4.3961,36.4207 C1.8711,30.5537 4.1811,29.2817 7.3781,27.5207 C8.4811,26.9137 9.6211,26.2857 10.6741,25.4067 C10.8551,25.2557 11.0231,25.1007 11.1811,24.9427 C10.6451,26.0807 9.5861,26.8577 8.3961,27.5547 M40.5081,45.0337 C44.4961,44.0127 48.6181,43.3047 52.2541,40.4247 C52.1291,40.3587 52.0251,40.3027 51.9221,40.2467 C51.4241,39.6157 49.9801,37.5137 51.1011,35.5677 C51.5221,34.8357 51.6381,34.1617 51.4431,33.5637 C51.0701,32.4137 49.6761,31.7907 48.4461,31.2417 C47.7291,30.9217 46.9861,30.5907 46.8141,30.2647 C45.9791,28.6767 46.6711,27.0667 47.3411,25.5087 C48.0521,23.8547 48.7871,22.1447 47.3001,20.7627 C45.4271,19.0217 45.2001,16.9907 45.2541,14.5317 C45.2801,13.9537 45.3031,13.3757 45.3131,12.7957 C45.3641,11.5327 45.4091,10.2257 45.3061,8.7947 C45.2821,8.4677 45.2341,8.1517 45.1681,7.8477 C44.7661,4.2397 42.0761,1.0087 38.4951,0.5957 C35.8471,0.2897 33.0161,0.4627 30.4241,0.6237 C27.7581,0.7887 25.0771,1.5457 22.7281,2.8757 C19.3951,4.7647 17.3361,6.4187 14.6961,13.2987 C14.2361,14.4957 14.0481,15.7767 13.7761,17.0247 C12.3831,17.5137 11.5081,18.8807 11.5791,20.8297 C11.5911,21.1587 11.6311,21.4737 11.6851,21.7807 C11.5921,22.2667 11.5271,22.7157 11.5401,22.8897 C11.5501,23.0247 11.5361,23.1437 11.5351,23.2717 C11.2071,23.8097 10.7751,24.3447 10.1931,24.8307 C9.1961,25.6637 8.0881,26.2737 7.0161,26.8637 C3.8781,28.5917 0.9131,30.2247 3.7061,36.7177 C4.3561,38.2277 3.3731,40.1707 2.3921,41.5787 C1.7031,42.1227 1.0421,42.7387 0.0281,43.6137 C4.4221,46.5977 9.0381,46.7707 13.4121,47.0077 C13.1771,48.2317 12.9451,49.4557 12.6911,50.6777 C12.5141,51.5317 12.6671,52.4557 12.6671,53.4127 C14.2401,53.3577 14.1801,52.3827 14.3571,51.5577 C16.0231,43.8237 17.3001,36.0307 18.0011,28.1477 C18.2201,25.6827 18.1921,25.6087 15.8231,24.3817 C14.0001,23.4377 12.9421,21.4087 13.5931,19.8587 C13.8141,19.3307 14.3561,18.6787 14.8401,18.5947 C15.2711,18.5197 15.8711,19.0997 16.3071,19.4917 C16.5871,19.7427 19.0381,22.4737 19.5371,22.7697 C19.6081,22.6247 19.5761,22.3427 19.5061,22.0177 C19.4471,19.8077 19.6641,16.7507 20.1001,15.5457 C21.2431,12.3857 23.4881,11.4737 26.6261,10.3297 C30.2421,9.0117 33.6161,5.9127 35.8861,4.6977 C36.4991,5.1047 37.1541,5.7167 37.9311,6.0217 C40.3881,6.9837 41.7251,8.8487 42.4451,11.2637 C42.5951,11.7617 42.7231,12.2667 42.8481,12.7737 C42.8171,13.5037 42.7761,14.2327 42.7091,14.9577 C42.1081,21.4887 41.2511,27.9817 38.3041,33.9767 C36.9461,36.7377 35.5231,37.3517 32.5011,36.4207 C30.2761,35.7347 28.1561,34.8267 26.3591,33.2807 C25.8451,32.8387 25.2001,32.0937 24.5541,32.9497 C23.9641,33.7307 24.7181,34.2967 25.2771,34.7087 C26.2371,35.4157 27.2191,36.1237 28.2771,36.6597 C30.9311,38.0037 33.6941,38.9797 36.7191,38.4207 C36.9951,39.2287 37.2281,39.8217 37.4021,40.4307 C38.4601,44.1137 39.4821,47.8067 40.5691,51.4807 C40.8391,52.3927 40.7761,53.5947 42.6721,54.0687 C42.5271,52.9757 42.5131,52.2047 42.3151,51.4847 C41.7241,49.3317 41.1151,47.1827 40.5081,45.0337" id="Fill-17"/></g></g></g><g id="Face" transform="translate(182.000000, 142.000000) scale(1 1)" fill="#000"><g id="Face/Happy" stroke="none" stroke-width="1" fill="none" fill-rule="evenodd"><g id="Happy" fill="#000"><polygon id="Fill-1" points="9.6244 5.4505 11.1524 11.4955 8.9234 11.7185"/><g id="Group-22" transform="translate(0.000000, 0.652400)"><path d="M9.6283,4.8567 L8.9363,11.0537 L11.1393,10.8337 L9.6283,4.8567 Z M8.9233,11.0767 C8.9213,11.0767 8.9183,11.0757 8.9163,11.0737 C8.9143,11.0707 8.9133,11.0677 8.9133,11.0647 L9.6133,4.7967 C9.6143,4.7917 9.6183,4.7877 9.6233,4.7877 C9.6283,4.7877 9.6333,4.7907 9.6343,4.7947 L11.1623,10.8397 C11.1633,10.8427 11.1623,10.8467 11.1613,10.8487 C11.1593,10.8517 11.1563,10.8527 11.1533,10.8537 L8.9253,11.0767 L8.9233,11.0767 Z" id="Fill-2"/><path d="M7.8626,0.3586 C7.8626,0.3586 7.9546,2.2096 7.5446,2.5976 C5.8246,2.4076 1.9526,3.0466 0.0106,3.9036 C0.7746,2.1306 7.8626,0.3586 7.8626,0.3586" id="Fill-4"/><g id="Group-8"><path d="M7.8524,0.3713 C7.6894,0.4133 5.9904,0.8483 4.2264,1.4753 C1.8134,2.3353 0.3654,3.1663 0.0314,3.8823 C1.9254,3.0563 5.7694,2.3923 7.5404,2.5873 C7.9214,2.2163 7.8594,0.5363 7.8524,0.3713 M0.0104,3.9143 C0.0074,3.9143 0.0054,3.9123 0.0034,3.9103 C-0.0006,3.9073 -0.0006,3.9033 0.0004,3.8983 C0.3184,3.1613 1.7384,2.3393 4.2194,1.4563 C6.0664,0.7993 7.8424,0.3523 7.8594,0.3483 C7.8634,0.3473 7.8664,0.3483 7.8684,0.3503 C7.8714,0.3513 7.8734,0.3543 7.8734,0.3573 C7.8764,0.4333 7.9614,2.2183 7.5514,2.6053 C7.5494,2.6073 7.5454,2.6093 7.5424,2.6083 C5.7684,2.4113 1.8994,3.0823 0.0154,3.9133 C0.0134,3.9133 0.0124,3.9143 0.0104,3.9143" id="Fill-6"/></g><path d="M4.8997,8.6438 C4.3457,8.6778 3.7937,8.5748 3.2787,8.4048 C3.4687,8.4608 3.6717,8.4918 3.8827,8.4918 C4.9357,8.4918 5.7927,7.7398 5.7927,6.8168 C5.7927,6.4448 5.5037,5.9998 5.2307,5.6918 C6.5807,5.8158 7.7657,6.5188 8.2027,6.8078 C7.8117,7.2718 6.5937,8.5398 4.8997,8.6438 M2.0237,6.3568 C1.9927,6.5158 1.9737,6.6898 1.9737,6.8168 C1.9737,7.4868 2.4247,8.0658 3.0737,8.3328 C2.0807,7.9648 1.2587,7.3728 0.9077,7.0968 C1.1117,6.9228 1.4927,6.6308 2.0237,6.3568 M8.6377,6.5928 C8.5667,6.5398 6.8727,5.2738 4.8837,5.2478 C2.1497,5.2168 0.5007,6.8868 0.4307,6.9578 C0.3907,6.9988 0.3697,7.0558 0.3717,7.1138 C0.3737,7.1708 0.3997,7.2258 0.4427,7.2638 C0.5297,7.3408 2.5167,9.0748 4.6817,9.0748 C4.7627,9.0748 4.8447,9.0718 4.9257,9.0668 C7.1967,8.9258 8.6227,6.9688 8.6827,6.8858 C8.7497,6.7918 8.7297,6.6628 8.6377,6.5928" id="Fill-9"/><path d="M14.221,8.217 C13.735,8.251 13.248,8.132 12.802,7.946 C12.879,7.961 12.957,7.971 13.035,7.971 C13.884,7.971 14.573,7.281 14.573,6.433 C14.573,6.062 14.443,5.714 14.209,5.439 C14.303,5.433 14.399,5.43 14.495,5.43 L14.496,5.43 C15.566,5.43 16.546,6.185 16.889,6.482 C16.584,6.905 15.595,8.118 14.221,8.217 M11.018,6.776 C11.129,6.681 11.296,6.548 11.511,6.402 C11.553,6.758 11.706,7.116 11.948,7.407 C12.013,7.487 12.083,7.556 12.156,7.619 C11.641,7.315 11.231,6.969 11.018,6.776 M17.318,6.298 C17.264,6.245 15.997,5.006 14.496,5.006 L14.495,5.006 C12.172,5.006 10.62,6.558 10.555,6.624 C10.474,6.706 10.474,6.838 10.554,6.921 C10.573,6.94 11.013,7.389 11.684,7.826 C12.519,8.371 13.313,8.647 14.046,8.647 C14.115,8.647 14.183,8.645 14.251,8.64 C16.129,8.505 17.3,6.639 17.349,6.56 C17.401,6.476 17.388,6.367 17.318,6.298" id="Fill-11"/><path d="M10.8109,0.3586 C10.8109,0.3586 10.7179,2.2096 11.1289,2.5976 C12.8479,2.4076 15.6169,2.8636 17.5589,3.7196 C16.7949,1.9476 10.8109,0.3586 10.8109,0.3586" id="Fill-13"/><g id="Group-17" transform="translate(10.000000, 0.000000)"><path d="M1.9872,2.5442 C3.7012,2.5442 5.9272,2.9942 7.5382,3.6992 C7.2082,2.9832 5.9502,2.1842 3.8942,1.3842 C2.3992,0.8032 0.9702,0.4122 0.8202,0.3722 C0.8142,0.5382 0.7522,2.2162 1.1332,2.5872 C1.3972,2.5582 1.6842,2.5442 1.9872,2.5442 M7.5582,3.7312 C7.5572,3.7312 7.5552,3.7312 7.5542,3.7302 C5.6592,2.8952 2.8982,2.4122 1.1302,2.6082 C1.1272,2.6092 1.1242,2.6072 1.1222,2.6062 C0.9492,2.4422 0.8432,2.0152 0.8052,1.3332 C0.7772,0.8272 0.8002,0.3622 0.8002,0.3572 C0.8002,0.3552 0.8022,0.3522 0.8042,0.3502 C0.8072,0.3482 0.8102,0.3472 0.8142,0.3482 C0.8282,0.3522 2.3282,0.7522 3.9022,1.3642 C5.3562,1.9302 7.1722,2.7972 7.5682,3.7162 C7.5702,3.7202 7.56924052,3.7252 7.5662,3.7282 C7.5642,3.7302 7.5612,3.7312 7.5582,3.7312" id="Fill-15"/></g><path d="M5.974,13.3127 C7.031,14.3127 7.89,14.8687 9.322,14.9637 C10.754,15.0597 11.757,14.5357 11.757,14.5357 C11.757,14.5357 10.611,16.4807 9.226,16.8417 C6.362,17.5907 6.497,15.3437 5.974,13.3127" id="Fill-18"/><path d="M5.993,13.3459 C6.075,13.6659 6.14,13.9919 6.203,14.3069 C6.411,15.3389 6.607,16.3149 7.294,16.7429 C7.744,17.0249 8.375,17.0539 9.223,16.8319 C10.493,16.4999 11.575,14.8109 11.729,14.5609 C11.544,14.6489 10.597,15.0589 9.321,14.9749 C7.881,14.8779 7.035,14.3279 5.993,13.3459 M8.224,16.9999 C7.849,16.9999 7.537,16.9199 7.283,16.7609 C6.588,16.3269 6.391,15.3479 6.182,14.3109 C6.117,13.9849 6.049,13.6469 5.964,13.3159 C5.962,13.3109 5.965,13.3069 5.969,13.3039 C5.972,13.3019 5.978,13.3019 5.981,13.3059 C7.033,14.2999 7.876,14.8569 9.323,14.9529 C10.736,15.0479 11.742,14.5319 11.752,14.5269 C11.757,14.5239 11.762,14.5249 11.764,14.5289 C11.768,14.5319 11.768,14.5369 11.766,14.5409 C11.755,14.5609 10.602,16.4929 9.229,16.8529 C8.853,16.9499 8.519,16.9999 8.224,16.9999" id="Fill-20"/></g></g></g></g><g id="Glasses" transform="translate(179.000000, 147.000000) scale(1 1)"><g id="Glasses/None" stroke="none" stroke-width="1" fill="none" fill-rule="evenodd" fill-opacity="0"/></g></g></svg>